<?xml version="1.0" encoding="UTF-8"?>
<svg version="1.1" xmlns="http://www.w3.org/2000/svg" width="626" height="400">
<path d="M0 0 C206.58 0 413.16 0 626 0 C626 121.77 626 243.54 626 369 C419.42 369 212.84 369 0 369 C0 247.23 0 125.46 0 0 Z " fill="#FEFEFE" transform="translate(0,31)"/>
<path d="M0 0 C0.66 0.33 1.32 0.66 2 1 C2.59423828 2.85766602 2.59423828 2.85766602 3.0703125 5.25390625 C3.24433594 6.10791016 3.41835938 6.96191406 3.59765625 7.84179688 C3.77167969 8.73962891 3.94570313 9.63746094 4.125 10.5625 C4.30675781 11.46419922 4.48851562 12.36589844 4.67578125 13.29492188 C5.12484477 15.52842201 5.56340293 17.76402954 6 20 C9.96 20.99 13.92 21.98 18 23 C17.97679687 21.90300781 17.95359375 20.80601562 17.9296875 19.67578125 C17.91092079 18.221361 17.89272156 16.76693336 17.875 15.3125 C17.85824219 14.59126953 17.84148437 13.87003906 17.82421875 13.12695312 C17.78608431 8.95123219 18.1210081 5.7505862 20 2 C20.66 2.33 21.32 2.66 22 3 C21.9371582 3.89924194 21.9371582 3.89924194 21.87304688 4.81665039 C20.66136236 16.12961981 20.66136236 16.12961981 23.60546875 26.63671875 C25.65326636 28.28457295 25.65326636 28.28457295 27.890625 29.59765625 C32.01724833 32.34109658 34.20620644 37.37087483 35.61328125 42.03125 C36.8606518 48.38150008 36.22701141 53.37875431 33 59 C29.55528022 62.77643353 26.29759331 65.67893374 21 66 C21 69.3 21 72.6 21 76 C22.340625 76.226875 23.68125 76.45375 25.0625 76.6875 C31.13291363 78.05453803 35.13100787 80.58839725 38.9375 85.5 C40.89009187 91.93206733 41.26469303 99.62429811 38.8125 106 C36.15687179 110.39552256 33.95027249 113.2425626 29.04296875 115.1484375 C25.5980656 116.4969761 22.8817259 117.66465638 20 120 C18.96140916 123.70925299 18.86707838 126.81930634 18.9921875 130.66015625 C19.00004565 134.01951529 18.45738426 136.0117974 17 139 C16.01 138.34 15.02 137.68 14 137 C13.34 138.65 12.68 140.3 12 142 C11.34 141.67 10.68 141.34 10 141 C9.35740119 138.52982661 8.83126126 136.12978118 8.375 133.625 C8.2409375 132.93921875 8.106875 132.2534375 7.96875 131.546875 C7.41661789 128.65099843 7 125.95439007 7 123 C5.64068359 123.2165625 5.64068359 123.2165625 4.25390625 123.4375 C3.03574219 123.623125 1.81757813 123.80875 0.5625 124 C-0.63246094 124.185625 -1.82742188 124.37125 -3.05859375 124.5625 C-7.34851256 125.03868524 -11.68373358 125 -16 125 C-16 132.26 -16 139.52 -16 147 C-16.99 147 -17.98 147 -19 147 C-19 140.07 -19 133.14 -19 126 C-20.98 125.34 -22.96 124.68 -25 124 C-26.375 120.375 -26.375 120.375 -27 117 C-26.01 117 -25.02 117 -24 117 C-23.67 118.65 -23.34 120.3 -23 122 C-21.35 122.33 -19.7 122.66 -18 123 C-18.04640625 121.79472656 -18.0928125 120.58945312 -18.140625 119.34765625 C-18.748644 95.58366448 -14.88613114 72.13371568 -10.65673828 48.82324219 C-9.11915498 40.20062091 -8.15176575 31.76102276 -8 23 C-10.64 21.68 -13.28 20.36 -16 19 C-16 18.01 -16 17.02 -16 16 C-13.82385907 16.48358687 -11.86585978 17.05748867 -9.8125 17.9375 C-5.96377749 19.39146184 -2.0237842 20.17595705 2 21 C1.7834375 19.97519531 1.566875 18.95039063 1.34375 17.89453125 C1.06224166 16.53390759 0.78100605 15.17322749 0.5 13.8125 C0.35691406 13.13896484 0.21382813 12.46542969 0.06640625 11.77148438 C-0.67821561 8.13702052 -1.2797025 4.71305068 -1 1 C-0.67 0.67 -0.34 0.34 0 0 Z " fill="#22B14C" transform="translate(293,143)"/>
<path d="M0 0 C0.99 0.33 1.98 0.66 3 1 C0.92651828 4.62211338 -1.39301408 7.80855985 -4 11.0625 C-8.70945405 17.25470222 -12.38780097 23.83419675 -16.01757812 30.70532227 C-18.64799165 35.66290471 -21.4657949 40.35892298 -24.65454102 44.97949219 C-25.97210328 46.95810683 -27.12713854 48.96839948 -28.25 51.0625 C-33.30185658 60.3676939 -39.2114336 69.22589044 -44.9375 78.125 C-46.62920346 80.76877844 -48.15718984 83.31437969 -49.5625 86.125 C-51.67100615 90.3420123 -54.3376895 94.11475825 -57 98 C-57.82844636 99.22634547 -58.65654501 100.45292587 -59.484375 101.6796875 C-65.36942923 110.36336964 -71.47949876 118.78123317 -78 127 C-78.63180176 127.804375 -78.63180176 127.804375 -79.27636719 128.625 C-84.73570497 135.56490686 -84.73570497 135.56490686 -87 138 C-87.66 138 -88.32 138 -89 138 C-89.24105469 138.56847656 -89.48210937 139.13695312 -89.73046875 139.72265625 C-91.24968088 142.44788908 -93.07418981 144.26690339 -95.3125 146.4375 C-96.12203125 147.2315625 -96.9315625 148.025625 -97.765625 148.84375 C-99.35869844 150.38112157 -100.95839418 151.91164325 -102.5625 153.4375 C-104.86861797 155.86188044 -106.88004691 158.36413086 -108.9375 161 C-112.03085981 164.93223704 -115.1036107 167.90059942 -119 171 C-120.33827304 172.66270287 -121.67189785 174.32916181 -123 176 C-123.78375 176.61875 -124.5675 177.2375 -125.375 177.875 C-127.55034878 179.63599663 -129.05977261 181.17977751 -130.8125 183.3125 C-134.18249997 187.33943667 -137.97767754 190.63906614 -142 194 C-142.93328125 194.78632813 -143.8665625 195.57265625 -144.828125 196.3828125 C-154.47249552 204.46924625 -164.28334935 212.27459761 -174.37988281 219.78857422 C-175.0344043 220.27600098 -175.68892578 220.76342773 -176.36328125 221.265625 C-176.98799316 221.73033203 -177.61270508 222.19503906 -178.25634766 222.67382812 C-179.82001902 223.86311164 -181.34100722 225.10802785 -182.85546875 226.359375 C-185 228 -185 228 -187 228 C-187.33 228.99 -187.66 229.98 -188 231 C-189 232 -190 233 -191 234 C-192.09166275 235.93330603 -192.09166275 235.93330603 -193 238 C-194.3262453 240.91773966 -195.68293424 242.79505032 -198 245 C-198.4125 245.70125 -198.825 246.4025 -199.25 247.125 C-200.88425744 249.80985151 -202.61949937 252.29594769 -204.5 254.8125 C-205.0878125 255.60269531 -205.675625 256.39289063 -206.28125 257.20703125 C-206.8484375 257.79871094 -207.415625 258.39039063 -208 259 C-211.54984736 259 -212.1132125 258.41768786 -214.8125 256.25 C-215.60785156 255.61191406 -216.40320313 254.97382813 -217.22265625 254.31640625 C-220.42947619 251.64180115 -223.59087561 248.91808456 -226.75 246.1875 C-246.20111441 229.38666547 -267.78270809 215.36423483 -289.71484375 202.03515625 C-293.7685342 199.52389261 -297.75730985 196.91924768 -301.75 194.3125 C-306.0788685 191.48721341 -310.37838663 188.69497584 -314.9375 186.25 C-323.82862576 181.44946822 -331.54388692 175.0460965 -339.29125977 168.61914062 C-343.06926816 165.49844122 -346.91367241 162.71323364 -351 160 C-353.11455946 158.29600856 -355.19199854 156.58123671 -357.25 154.8125 C-357.80921143 154.33490234 -358.36842285 153.85730469 -358.94458008 153.36523438 C-373.2862499 141.07062516 -373.2862499 141.07062516 -376 137 C-372.40076127 137 -372.00381073 137.57477968 -369.4375 139.9375 C-368.72464844 140.58203125 -368.01179688 141.2265625 -367.27734375 141.890625 C-365.78631418 143.27168155 -364.29917106 144.65694878 -362.81640625 146.046875 C-356.61925371 151.77375458 -350.06286532 156.81602051 -343.28125 161.81640625 C-340.3925306 163.94921762 -337.54334164 166.1228228 -334.71875 168.33984375 C-326.36930213 174.88251336 -317.94743553 180.72120211 -308.74365234 185.99121094 C-278.13706627 203.69863374 -248.84641545 223.44480998 -221.5546875 245.91796875 C-217.75601699 249.01382713 -213.88650481 252.01554816 -210 255 C-208.66014102 253.33857487 -207.32917292 251.66998649 -206 250 C-205.45601562 249.33355469 -204.91203125 248.66710937 -204.3515625 247.98046875 C-201.32665396 244.20923998 -198.63661938 240.53066759 -196.375 236.25 C-194.34709978 232.46806391 -192.240496 229.88044089 -189 227 C-188.26652344 226.31035156 -187.53304687 225.62070312 -186.77734375 224.91015625 C-182.1935526 220.65226061 -177.61271719 216.94055997 -172.33984375 213.5859375 C-168.62088429 211.06524043 -165.24596159 208.1437563 -161.80078125 205.265625 C-159.20734431 203.16772622 -156.55711463 201.26783768 -153.8125 199.375 C-142.31191867 191.09979417 -132.4538115 180.52608863 -122.4375 170.5625 C-121.70007568 169.8298291 -120.96265137 169.0971582 -120.20288086 168.34228516 C-116.17073905 164.29774806 -112.33403355 160.14929481 -108.60571289 155.82397461 C-106.34643468 153.2575967 -103.94661573 150.8890483 -101.5 148.5 C-97.11507979 144.16721915 -92.9613511 139.72282032 -89 135 C-87.81083984 133.59234375 -87.81083984 133.59234375 -86.59765625 132.15625 C-84.04338328 129.12174852 -81.51747686 126.06510982 -79 123 C-78.3915625 122.26007813 -77.783125 121.52015625 -77.15625 120.7578125 C-71.62307335 113.84134168 -66.82967306 106.41490933 -62 99 C-61.35675781 98.01386719 -60.71351563 97.02773437 -60.05078125 96.01171875 C-56.42639004 90.38373151 -53.03556021 84.64568604 -49.69140625 78.84765625 C-47.72067765 75.52973212 -45.5859626 72.35334924 -43.41015625 69.16796875 C-41.47469532 66.19239862 -39.8163412 63.09112848 -38.17578125 59.9453125 C-37 58 -37 58 -35.52734375 56.5546875 C-33.57838415 54.57083604 -32.52721834 52.46833207 -31.25 50 C-28.60868294 45.02694669 -25.70784535 40.3077834 -22.61328125 35.60546875 C-20.88275285 32.81064443 -19.44884397 29.94996582 -18 27 C-12.82470802 17.23507264 -6.95098978 8.57478657 0 0 Z " fill="#23B14D" transform="translate(485,132)"/>
<path d="M0 0 C2.64 0.33 5.28 0.66 8 1 C9.2384471 5.78374571 9.10970528 10.43858049 9.0625 15.33984375 C9.05376246 17.21573842 9.04514046 19.09163363 9.03662109 20.9675293 C9.03039734 21.94329926 9.02417358 22.91906921 9.01776123 23.92440796 C8.8732544 48.43917227 9.89449252 72.57366145 12 97 C9.64655194 97.33923576 7.2924516 97.67150534 4.9375 98 C4.28072266 98.09539062 3.62394531 98.19078125 2.94726562 98.2890625 C-1.40138763 98.88887674 -5.61329071 99.09127093 -10 99 C-11.07112495 74.51289357 -6.8548029 50.22595414 -2.65673828 26.18164062 C-1.15704176 17.4419072 -0.15586915 8.8703715 0 0 Z " fill="#FEFEFE" transform="translate(288,166)"/>
<path d="M0 0 C3.4118704 2.00938257 6.73834197 4.12051305 10.05078125 6.2890625 C17.32605771 10.9365774 24.55751285 14.39468496 32.61328125 17.5390625 C33.76957031 18.01730469 34.92585937 18.49554688 36.1171875 18.98828125 C43.70910023 22.10858195 51.38071592 24.85860574 59.14819336 27.50708008 C64.47918206 29.35711492 69.73539273 31.35742879 74.96484375 33.4765625 C75.60955124 33.73750702 76.25425873 33.99845154 76.91850281 34.26730347 C80.10698147 35.56120681 83.2895405 36.86722127 86.46704102 38.18798828 C100.44173466 43.90580639 114.54280385 47.76021466 129.37142944 50.50762939 C141.10652308 52.69613817 152.75459623 55.12103826 164.30078125 58.1640625 C165.33775146 58.42880371 166.37472168 58.69354492 167.44311523 58.96630859 C173.53694616 60.62766278 178.48273936 62.83958889 183.61328125 66.5390625 C183.28328125 67.5290625 182.95328125 68.5190625 182.61328125 69.5390625 C181.52917969 68.94996094 180.44507813 68.36085938 179.328125 67.75390625 C174.13332546 65.16504869 168.76032745 63.62668933 163.17578125 62.1015625 C162.089021 61.80080811 161.00226074 61.50005371 159.88256836 61.19018555 C149.17067038 58.29705623 138.34538551 56.15583743 127.45068359 54.08447266 C109.24508351 50.58496219 92.58779942 45.02873544 75.50622559 37.85827637 C67.76114581 34.60827186 60.00889285 31.48864813 52.05078125 28.7890625 C34.96403842 22.97732859 17.96199211 16.68413556 2.98828125 6.4140625 C-0.12909158 4.16494778 -0.12909158 4.16494778 -2.78125 5.20703125 C-18.60068165 13.29462674 -29.54897229 26.37310786 -39.21533203 40.79248047 C-41.93946354 44.85426388 -41.93946354 44.85426388 -43.38671875 46.5390625 C-44.04671875 46.5390625 -44.70671875 46.5390625 -45.38671875 46.5390625 C-45.63808594 47.10367188 -45.88945312 47.66828125 -46.1484375 48.25 C-50.71617145 56.69382365 -58.70147993 62.62139524 -66.2734375 68.21484375 C-68.48987284 69.86952258 -70.56851935 71.53160879 -72.65625 73.33203125 C-75.38671875 75.5390625 -75.38671875 75.5390625 -77.38671875 75.5390625 C-77.71671875 76.5290625 -78.04671875 77.5190625 -78.38671875 78.5390625 C-80.02462587 79.58550316 -81.69679896 80.5788808 -83.38671875 81.5390625 C-85.05885486 82.86553014 -86.72479657 84.1998201 -88.38671875 85.5390625 C-90.23323098 86.90364814 -92.08754284 88.25773803 -93.94921875 89.6015625 C-97.81549432 92.3901682 -97.81549432 92.3901682 -101.6015625 95.28515625 C-103.38671875 96.5390625 -103.38671875 96.5390625 -105.38671875 96.5390625 C-105.88171875 98.0240625 -105.88171875 98.0240625 -106.38671875 99.5390625 C-108.53125 101.51171875 -108.53125 101.51171875 -111.19921875 103.6015625 C-112.50826172 104.63990234 -112.50826172 104.63990234 -113.84375 105.69921875 C-116.38671875 107.5390625 -116.38671875 107.5390625 -118.5859375 108.53515625 C-120.91517793 109.8336699 -121.24082719 111.16449635 -122.38671875 113.5390625 C-123.81311283 114.94870831 -125.3007319 116.29745775 -126.82421875 117.6015625 C-130.70038406 120.99670297 -134.39325829 124.49513536 -138.01171875 128.1640625 C-141.78883457 131.9839785 -145.63265384 135.628838 -149.73046875 139.1015625 C-151.42791099 140.52690447 -151.42791099 140.52690447 -152.98046875 142.2265625 C-154.38671875 143.5390625 -154.38671875 143.5390625 -156.38671875 143.5390625 C-156.71671875 144.5290625 -157.04671875 145.5190625 -157.38671875 146.5390625 C-158.7421875 147.87109375 -158.7421875 147.87109375 -160.57421875 149.3515625 C-175.06542772 161.71323897 -186.64159481 175.89396306 -197.38671875 191.5390625 C-198.77211201 193.54630842 -200.16813815 195.54625342 -201.57421875 197.5390625 C-202.20714844 198.4465625 -202.84007812 199.3540625 -203.4921875 200.2890625 C-205.36819098 202.51705839 -206.70426306 203.49225052 -209.38671875 204.5390625 C-209.38671875 200.53197005 -207.4240497 198.70216985 -205.01171875 195.7265625 C-201.29108924 191.03301932 -197.74692296 186.26609365 -194.32421875 181.3515625 C-190.09292683 175.33014044 -185.4097672 169.92090013 -180.38671875 164.5390625 C-179.23590503 163.21002541 -178.08982191 161.87687274 -176.94921875 160.5390625 C-170.93774995 153.65092116 -164.39893055 147.26839568 -157.45703125 141.32421875 C-155.02311364 139.22553885 -152.6434004 137.07179498 -150.26171875 134.9140625 C-147.62448372 132.52645888 -144.9876741 130.18501914 -142.19921875 127.9765625 C-139.86328983 125.95209077 -138.00228283 124.00353444 -136.01171875 121.6640625 C-132.999848 118.12578071 -129.75656486 115.12060968 -126.21875 112.1171875 C-124.73847836 110.84207077 -123.33072641 109.48307016 -121.94921875 108.1015625 C-113.73030202 99.88264577 -104.55449214 92.98386039 -95.30126953 85.99121094 C-92.28187036 83.70105712 -89.29862484 81.36554237 -86.31640625 79.02734375 C-83.59209712 76.92620655 -80.8086306 74.90714456 -78.015625 72.8984375 C-76.12149046 71.44824777 -76.12149046 71.44824777 -74.38671875 68.5390625 C-72.73343706 67.51708529 -71.06455298 66.52020982 -69.38671875 65.5390625 C-67.52944559 64.09006921 -65.69678908 62.60910703 -63.88671875 61.1015625 C-58.4328158 56.57451665 -58.4328158 56.57451665 -55.6796875 54.45703125 C-52.93426038 52.16060073 -51.34590122 49.51161521 -49.38671875 46.5390625 C-48.72671875 46.5390625 -48.06671875 46.5390625 -47.38671875 46.5390625 C-47.12117187 45.96285156 -46.855625 45.38664062 -46.58203125 44.79296875 C-45.33735452 42.44598028 -43.92492029 40.54589464 -42.26171875 38.4765625 C-39.50379557 34.99468449 -36.85558238 31.45742596 -34.26171875 27.8515625 C-32.97033543 26.08052252 -31.67870407 24.30966336 -30.38671875 22.5390625 C-29.62359375 21.4871875 -28.86046875 20.4353125 -28.07421875 19.3515625 C-24.82804163 15.95440039 -21.28583149 13.39669858 -17.4375 10.71484375 C-15.27860664 9.17514644 -13.22884922 7.628536 -11.1796875 5.95703125 C-10.65060791 5.53333252 -10.12152832 5.10963379 -9.57641602 4.6730957 C-8.08043377 3.46935402 -6.59653737 2.25063845 -5.11328125 1.03125 C-2.38671875 -0.4609375 -2.38671875 -0.4609375 0 0 Z " fill="#22B14C" transform="translate(320.38671875,63.4609375)"/>
<path d="M0 0 C1.68170395 1.31431632 3.34878596 2.64757708 5 4 C6.55331726 5.09645924 8.11597325 6.17980327 9.6875 7.25 C17.61319036 12.76505753 24.96812987 18.81128111 31.9921875 25.43359375 C34.05018384 27.03915121 35.44869515 27.59385057 38 28 C38 30.31 38 32.62 38 35 C37.01 35 36.02 35 35 35 C35 34.01 35 33.02 35 32 C34.34 32 33.68 32 33 32 C32.73574219 32.59554687 32.47148437 33.19109375 32.19921875 33.8046875 C30.95498791 36.08239998 29.72083092 37.38697779 27.8125 39.125 C23.50986018 43.28451666 20.36312494 48.07835374 17 53 C9.39385505 63.35280841 -4.56600963 75.0351993 -17 79 C-21.97262771 79.75131602 -25.7836585 79.5086519 -30.4375 77.5625 C-33.87142513 74.12857487 -34.86853896 70.64494532 -36 66 C-37.485 66.495 -37.485 66.495 -39 67 C-41.95401536 67.24874332 -44.91156767 67.23115464 -47.875 67.25 C-49.07962891 67.2809375 -49.07962891 67.2809375 -50.30859375 67.3125 C-55.01388392 67.34350685 -58.26173784 67.17269482 -62 64 C-64.90420956 60.27503556 -65.36700706 57.54358177 -65.25 52.875 C-65.23453125 51.84117187 -65.2190625 50.80734375 -65.203125 49.7421875 C-65 47 -65 47 -64 44 C-65.299375 44.495 -65.299375 44.495 -66.625 45 C-73.72629345 47.01444855 -81.72158321 46.8599126 -88.8125 45 C-93.35831852 42.14772171 -97.16865314 38.74241811 -101 35 C-101.825 34.195625 -102.65 33.39125 -103.5 32.5625 C-105.64572243 28.89689085 -106.38272015 25.23775588 -106 21 C-103.97130772 15.19717454 -100.62893126 12.90856172 -95.625 9.8125 C-94.965 9.38775391 -94.305 8.96300781 -93.625 8.52539062 C-91.76092883 7.33156816 -89.88465019 6.16099268 -88 5 C-86.62521484 4.15115234 -86.62521484 4.15115234 -85.22265625 3.28515625 C-82.88732421 1.93485003 -80.48890574 0.90283548 -77.99609375 -0.12109375 C-75.72572583 -1.12076651 -73.5667851 -2.27588942 -71.375 -3.4375 C-49.0325593 -14.39293155 -21.34081867 -13.07247698 0 0 Z M-96 14 C-96.60199219 14.40476562 -97.20398438 14.80953125 -97.82421875 15.2265625 C-100.87885493 17.43387536 -101.95754993 18.86016447 -103.0625 22.5 C-102.94781476 28.92237369 -98.34447125 33.41265449 -94.15625 37.97265625 C-88.49595563 43.29456345 -82.00258493 43.58302033 -74.4609375 43.43359375 C-69.53710941 42.8167259 -65.30956585 41.1577968 -60.77734375 39.19140625 C-58.49493705 38.21231477 -56.42058298 37.50501372 -54 37 C-55.1446875 38.3303125 -55.1446875 38.3303125 -56.3125 39.6875 C-57.21065395 40.78977985 -58.10658917 41.89387231 -59 43 C-59.598125 43.721875 -60.19625 44.44375 -60.8125 45.1875 C-62.68188424 49.61498898 -62.7191134 54.26936184 -62 59 C-60.183017 62.09737161 -59.47032964 62.84322345 -56 64 C-53.36227423 64.12248619 -50.76254205 64.18512384 -48.125 64.1875 C-47.41730469 64.19974609 -46.70960937 64.21199219 -45.98046875 64.22460938 C-41.57416838 64.23691748 -39.23055718 63.69222287 -35 62 C-34.67 58.04 -34.34 54.08 -34 50 C-32.68 50.99 -31.36 51.98 -30 53 C-29.625 56.5625 -29.625 56.5625 -30 60 C-30.66 60.66 -31.32 61.32 -32 62 C-32.33704163 66.46580163 -32.24849564 70.06513263 -30 74 C-26.56304775 76.7759999 -22.20984298 76.41133976 -18 76 C-2.55919359 70.60605758 12.02903453 56.81701539 20.8125 43.1875 C24.09642707 38.40234913 28.0647511 34.25477765 32 30 C23.70457342 19.46256624 12.77784603 12.24667075 1.62548828 5.05566406 C0.28927772 4.18786976 -1.03148049 3.29632779 -2.34765625 2.3984375 C-32.16948305 -17.56442808 -69.63615789 -5.63897945 -96 14 Z " fill="#22B14C" transform="translate(133,85)"/>
<path d="M0 0 C7.81386542 6.66947253 7.81386542 6.66947253 8.9375 11.48828125 C9.33295238 16.53532607 9.17574095 20.27248134 6.07421875 24.37890625 C1.40815395 29.80908047 -2.96818839 34.45405165 -10.4152832 35.31103516 C-11.39456787 35.34245605 -12.37385254 35.37387695 -13.3828125 35.40625 C-14.98286133 35.46425781 -14.98286133 35.46425781 -16.61523438 35.5234375 C-18.26942383 35.56984375 -18.26942383 35.56984375 -19.95703125 35.6171875 C-21.64022461 35.67519531 -21.64022461 35.67519531 -23.35742188 35.734375 C-26.11962977 35.82840761 -28.88183525 35.91406091 -31.64453125 35.9921875 C-30.95818604 36.25628418 -30.27184082 36.52038086 -29.56469727 36.79248047 C-28.66420654 37.14455566 -27.76371582 37.49663086 -26.8359375 37.859375 C-25.94334229 38.20597168 -25.05074707 38.55256836 -24.13110352 38.90966797 C-20.4639917 40.50613078 -17.45922418 42.36280164 -15.64453125 45.9921875 C-15.20703125 48.8671875 -15.20703125 48.8671875 -15.64453125 51.9921875 C-21.56150673 57.18758061 -28.45705601 58.21573583 -36.109375 58.40625 C-36.78754776 58.42561615 -37.46572052 58.4449823 -38.16444397 58.4649353 C-40.30351691 58.52410749 -42.44264553 58.57086269 -44.58203125 58.6171875 C-46.04364161 58.65542495 -47.50523082 58.69447992 -48.96679688 58.734375 C-52.52584668 58.82975569 -56.08505712 58.91401317 -59.64453125 58.9921875 C-59.75845215 59.77247314 -59.87237305 60.55275879 -59.98974609 61.35668945 C-60.94253364 65.19164155 -63.0003653 66.08271629 -66.26953125 68.1796875 C-67.80480469 69.19095703 -67.80480469 69.19095703 -69.37109375 70.22265625 C-79.15479227 75.51145748 -92.41459515 75.98924076 -103.0546875 72.859375 C-112.9338124 69.46763501 -123.75160642 65.07354764 -130.64453125 56.9921875 C-130.31453125 56.0021875 -129.98453125 55.0121875 -129.64453125 53.9921875 C-128.67515625 54.8171875 -127.70578125 55.6421875 -126.70703125 56.4921875 C-122.42638483 59.71996397 -117.85368735 61.98047266 -113.01953125 64.2421875 C-111.92717163 64.75362305 -111.92717163 64.75362305 -110.81274414 65.27539062 C-103.67151434 68.54645593 -97.71351317 70.36140064 -89.83203125 70.3046875 C-89.03176514 70.29977295 -88.23149902 70.2948584 -87.40698242 70.28979492 C-77.94497702 70.10173142 -72.13725352 67.64995738 -64.64453125 61.9921875 C-63.98453125 61.9921875 -63.32453125 61.9921875 -62.64453125 61.9921875 C-62.97453125 60.6721875 -63.30453125 59.3521875 -63.64453125 57.9921875 C-65.31515625 57.59 -65.31515625 57.59 -67.01953125 57.1796875 C-70.64453125 55.9921875 -70.64453125 55.9921875 -72.64453125 52.9921875 C-69.89785253 51.93577261 -68.78446935 51.94226687 -65.9597168 52.94995117 C-60.34075258 54.7164552 -54.53630288 54.32514678 -48.69702148 54.30786133 C-46.48044738 54.30472068 -44.2652358 54.32812468 -42.04882812 54.35351562 C-33.86425434 54.38830256 -26.43332847 53.76095563 -18.64453125 50.9921875 C-18.82390413 48.09104007 -18.82390413 48.09104007 -20.64453125 44.9921875 C-28.27594026 40.03032081 -38.00720719 37.73141983 -46.64453125 34.9921875 C-46.64453125 34.0021875 -46.64453125 33.0121875 -46.64453125 31.9921875 C-44.96496338 31.97031372 -44.96496338 31.97031372 -43.25146484 31.94799805 C-39.08024851 31.88983864 -34.90956206 31.81260727 -30.73876953 31.72973633 C-28.93677396 31.69656977 -27.13467658 31.66851225 -25.33251953 31.64575195 C-22.73556302 31.61205318 -20.13953259 31.55973101 -17.54296875 31.50390625 C-16.3426149 31.49432137 -16.3426149 31.49432137 -15.11801147 31.48454285 C-9.27310337 31.33237968 -5.1871608 30.02347642 -0.52734375 26.30078125 C2.85639058 22.69898404 4.85348255 19.96146676 5.16796875 14.9296875 C4.80282291 10.43770476 3.50172304 7.71546451 0.34375 4.52734375 C-11.25502253 -4.42809359 -24.88884732 -4.15165027 -38.88769531 -2.78955078 C-57.166902 -0.22902183 -74.38616684 6.81238717 -89.64453125 16.9921875 C-90.43988281 17.49878906 -91.23523438 18.00539062 -92.0546875 18.52734375 C-96.7597561 21.55376009 -100.92419567 24.85320763 -105.015625 28.671875 C-106.64453125 29.9921875 -106.64453125 29.9921875 -108.64453125 29.9921875 C-108.97453125 30.9821875 -109.30453125 31.9721875 -109.64453125 32.9921875 C-110.36640625 33.5284375 -111.08828125 34.0646875 -111.83203125 34.6171875 C-116.81148976 38.82206357 -120.6996934 43.96084876 -121.51953125 50.5546875 C-121.56078125 51.6890625 -121.60203125 52.8234375 -121.64453125 53.9921875 C-122.63453125 53.9921875 -123.62453125 53.9921875 -124.64453125 53.9921875 C-125.4647158 46.72769576 -124.13594678 43.10602769 -119.69140625 37.328125 C-117.26247708 34.55617912 -114.71869292 32.16549106 -111.8671875 29.8359375 C-109.24649599 27.66200711 -106.80726205 25.33010108 -104.33203125 22.9921875 C-99.13108668 18.25099493 -93.68116493 14.57339162 -87.64453125 10.9921875 C-86.88011719 10.49203125 -86.11570312 9.991875 -85.328125 9.4765625 C-63.46191981 -4.58292646 -22.66466622 -17.20773772 0 0 Z " fill="#22B14C" transform="translate(594.64453125,166.0078125)"/>
<path d="M0 0 C12 3 12 3 16 7 C18.30953977 12.97763235 18.02979843 21.44065031 15.75 27.375 C12.69589615 32.70296219 6.49745142 34.88436272 1 37 C0.34 37 -0.32 37 -1 37 C-0.67 24.79 -0.34 12.58 0 0 Z " fill="#FDFEFD" transform="translate(313,222)"/>
<path d="M0 0 C5.94 0.99 5.94 0.99 12 2 C13.00011408 10.23716003 13.1180068 18.33313817 13.0625 26.625 C13.05798828 27.91535156 13.05347656 29.20570313 13.04882812 30.53515625 C13.03714306 33.69012451 13.01921135 36.84506859 13 40 C7.06 42.475 7.06 42.475 1 45 C0.22861833 29.98560681 -0.13200469 15.03386692 0 0 Z " fill="#FDFEFE" transform="translate(299,167)"/>
<path d="M0 0 C3.3 0.99 6.6 1.98 10 3 C10.19148936 30.10638298 10.19148936 30.10638298 9 42 C7.02 42.66 5.04 43.32 3 44 C1.6343312 39.90299359 1.35231888 35.84883345 0.9375 31.5625 C0.84807129 30.64122314 0.75864258 29.71994629 0.66650391 28.77075195 C-0.19003413 19.17344725 -0.18610869 9.62595525 0 0 Z " fill="#FDFEFE" transform="translate(300,218)"/>
<path d="M0 0 C6.19823987 3.09911994 9.34139102 7.47007939 11.49609375 13.921875 C12.64385573 18.65528099 12.50668469 22.61328401 10.8125 27.25 C8.18561967 31.23561154 5.53058408 33.48980531 1 35 C0.505 17.675 0.505 17.675 0 0 Z " fill="#FBFDFC" transform="translate(314,171)"/>
<path d="M0 0 C0 4.29 0 8.58 0 13 C-2.475 12.01 -2.475 12.01 -5 11 C-5.33 8.03 -5.66 5.06 -6 2 C-1.125 0 -1.125 0 0 0 Z " fill="#F9FDFA" transform="translate(309,263)"/>
<path d="M0 0 C0 2.31 0 4.62 0 7 C-4.455 6.01 -4.455 6.01 -9 5 C-8.67 4.01 -8.34 3.02 -8 2 C-5.10441559 0.5522078 -3.25811062 0 0 0 Z " fill="#F7FCF9" transform="translate(311,211)"/>
<path d="M0 0 C1.32 0 2.64 0 4 0 C4 1.32 4 2.64 4 4 C2.68 4 1.36 4 0 4 C0 2.68 0 1.36 0 0 Z " fill="#E51A1A" transform="translate(596,1)"/>
</svg>
